<svg width="669" height="535" viewBox="0 0 669 535" fill="none" xmlns="http://www.w3.org/2000/svg">
<path d="M276.12 86.7746C276.255 86.2121 276.323 85.9309 276.253 85.7097C276.191 85.5158 276.061 85.351 275.887 85.2461C275.688 85.1265 275.399 85.1265 274.821 85.1265H73.307C32.8207 85.1265 0 119.333 0 161.528V458.146C0 500.343 32.8207 534.549 73.307 534.549H322.359C322.736 534.549 322.924 534.549 323.08 534.482C323.218 534.424 323.337 534.33 323.426 534.21C323.527 534.073 323.571 533.89 323.659 533.524L333.047 494.385C333.182 493.823 333.249 493.542 333.179 493.321C333.118 493.127 332.988 492.962 332.814 492.857C332.615 492.737 332.326 492.737 331.747 492.737H180.436C179.857 492.737 179.568 492.737 179.369 492.618C179.195 492.513 179.065 492.348 179.004 492.154C178.934 491.933 179.001 491.652 179.136 491.089L276.12 86.7746Z" fill="#F6F6F6"/>
<path d="M342.048 0H594.305C635.138 0 668.241 34.2063 668.241 76.4019V373.02C668.241 415.216 635.138 449.422 594.305 449.422H233.316L342.048 0Z" fill="#F6F6F6"/>
</svg>
